<?xml version="1.0" encoding="utf-8"?>
<!-- Uploaded to SVGRepo https://www.svgrepo.com -->
<svg version="1.1" id="Layer_1" xmlns="http://www.w3.org/2000/svg" xmlns:xlink="http://www.w3.org/1999/xlink" x="0px" y="0px"
	 width="260px" height="260px" viewBox="0 0 260 260" enable-background="new 0 0 260 260" xml:space="preserve">
<path d="M129.01,73.38V57.62l-16.52-2.79c-1.22-5.4-3.35-10.46-6.22-15.01l9.71-13.65l-11.15-11.15l-13.65,9.71
	c-4.54-2.87-9.6-4.99-15.01-6.22L73.39,2H57.62l-2.78,16.51c-5.41,1.23-10.47,3.35-15.01,6.22l-13.65-9.71L15.03,26.17l9.71,13.65
	c-2.87,4.55-5,9.61-6.22,15.01L2,57.62v15.76l16.52,2.78c1.22,5.41,3.35,10.47,6.22,15.02l-9.71,13.65l11.15,11.14l13.65-9.71
	c4.54,2.87,9.6,5,15.01,6.22L57.62,129h15.77l2.78-16.52c5.41-1.22,10.47-3.35,15.01-6.22l13.65,9.71l11.15-11.14l-9.71-13.65
	c2.87-4.55,5-9.61,6.22-15.02L129.01,73.38z M65.5,90.56c-13.83,0-25.05-11.22-25.05-25.06S51.67,40.44,65.5,40.44
	c13.84,0,25.06,11.22,25.06,25.06S79.34,90.56,65.5,90.56z M238.749,163.766L258,151.818l-8.075-19.731l-22.105,4.975
	c-4.171-5.958-9.367-11.256-15.47-15.607l5.163-22.058l-19.662-8.242l-12.11,19.145c-7.381-1.302-14.802-1.293-21.975-0.09
	l-11.949-19.251l-19.731,8.075l4.975,22.105c-5.958,4.171-11.256,9.367-15.607,15.47l-22.058-5.163l-8.242,19.662l19.145,12.11
	c-1.302,7.381-1.293,14.803-0.09,21.975l-19.251,11.949l8.075,19.731l22.105-4.975c4.171,5.958,9.367,11.256,15.47,15.607
	l-5.163,22.058l19.662,8.242l12.11-19.145c7.381,1.302,14.803,1.293,21.975,0.09L197.141,258l19.731-8.075l-4.975-22.105
	c5.958-4.171,11.256-9.367,15.607-15.47l22.058,5.163l8.242-19.662l-19.145-12.11C239.96,178.36,239.952,170.939,238.749,163.766z
	 M205.734,187.582c-7.236,17.261-27.096,25.389-44.357,18.152s-25.389-27.096-18.152-44.357s27.096-25.389,44.357-18.152
	S212.97,170.32,205.734,187.582z"/>
</svg>
