<?xml version="1.0" encoding="iso-8859-1"?>
<!-- Generator: Adobe Illustrator 16.0.0, SVG Export Plug-In . SVG Version: 6.00 Build 0)  -->
<!DOCTYPE svg PUBLIC "-//W3C//DTD SVG 1.1//EN" "http://www.w3.org/Graphics/SVG/1.1/DTD/svg11.dtd">
<svg version="1.1" id="Capa_1" xmlns="http://www.w3.org/2000/svg" xmlns:xlink="http://www.w3.org/1999/xlink" x="0px" y="0px"
	 width="948.346px" height="948.346px" viewBox="0 0 948.346 948.346" style="enable-background:new 0 0 948.346 948.346;"
	 xml:space="preserve">
<g>
	<g>
		<path d="M457.701,939.221c0,0,0.001,0,0.001,0.002l16.472,9.123l16.472-9.123c0,0,0,0,0-0.002l246.951-136.771l158.17-87.602
			v-20.037v-480.02v-21.83l-19.85-9.085l-47.105-21.56L474.173,0L119.534,162.316l-47.105,21.56l-19.85,9.085v21.83v480.02v20.037
			l158.171,87.602L457.701,939.221z M586.337,328.471l-112.164,62.121L362.01,328.471L161.968,217.678L474.173,74.784
			l312.205,142.894L586.337,328.471z M508.173,851.781V449.494l319.594-177.005v402.287L508.173,851.781z M440.173,449.494v402.288
			L120.58,674.775V272.488L440.173,449.494z"/>
	</g>
</g>
	<g>
</g>
	<g>
</g>
	<g>
</g>
	<g>
</g>
	<g>
</g>
	<g>
</g>
	<g>
</g>
	<g>
</g>
	<g>
</g>
	<g>
</g>
	<g>
</g>
	<g>
</g>
	<g>
</g>
	<g>
</g>
	<g>
</g>
</svg>
